<?xml version="1.0" standalone="no"?>
<!DOCTYPE svg PUBLIC "-//W3C//DTD SVG 20010904//EN"
 "http://www.w3.org/TR/2001/REC-SVG-20010904/DTD/svg10.dtd">
<svg version="1.0" xmlns="http://www.w3.org/2000/svg"
 width="2000.000000pt" height="2000.000000pt" viewBox="0 0 2000.000000 2000.000000"
 preserveAspectRatio="xMidYMid meet">

<g transform="translate(0.000000,2000.000000) scale(0.100000,-0.100000)"
fill="#000000" stroke="none">
<path d="M0 10000 l0 -10000 10000 0 10000 0 0 10000 0 10000 -10000 0 -10000
0 0 -10000z m15480 -10 l0 -5470 -5470 0 -5470 0 0 680 0 680 75 0 75 0 0
-605 0 -605 5320 0 5320 0 0 5320 0 5320 -5320 0 -5320 0 0 -3390 0 -3390 -75
0 -75 0 0 3465 0 3465 5470 0 5470 0 0 -5470z m-9528 -2094 c139 -30 294 -124
386 -234 175 -211 226 -499 134 -760 -41 -114 -86 -185 -177 -277 -91 -91
-174 -144 -290 -182 -72 -24 -95 -27 -225 -27 -133 0 -152 2 -225 27 -249 87
-410 250 -496 502 -21 62 -24 87 -24 220 1 136 3 158 28 230 82 246 278 430
527 494 92 24 265 27 362 7z m2373 0 c267 -59 474 -261 545 -532 28 -107 28
-290 0 -398 -32 -128 -101 -248 -195 -341 -141 -140 -286 -204 -480 -212 -224
-10 -407 61 -565 217 -87 86 -147 181 -186 296 -36 105 -45 293 -19 409 31
141 131 306 242 400 87 74 228 143 334 164 68 14 257 12 324 -3z m2399 -6
c331 -84 546 -370 546 -725 0 -413 -294 -733 -690 -753 -266 -12 -505 102
-655 313 -96 134 -136 264 -137 440 0 196 51 339 172 485 92 110 265 215 403
245 96 21 269 19 361 -5z m-6125 -32 c88 -32 136 -64 201 -135 61 -66 90 -142
97 -248 9 -138 -27 -237 -122 -336 -54 -57 -106 -90 -191 -121 -51 -18 -87
-22 -269 -27 l-210 -6 -5 -256 c-5 -267 -8 -281 -51 -294 -19 -6 -59 10 -71
29 -4 6 -8 322 -8 703 l0 692 23 16 c19 14 54 16 277 12 245 -3 258 -4 329
-29z m2197 18 c18 -14 19 -34 22 -657 2 -493 5 -645 15 -651 7 -4 145 -8 308
-8 278 0 297 -1 313 -19 11 -12 16 -31 14 -52 -5 -58 -13 -59 -401 -57 -332 3
-349 4 -363 22 -12 17 -14 130 -14 710 0 627 1 691 17 708 19 22 62 23 89 4z
m2376 -3 c17 -15 18 -49 18 -653 0 -481 3 -639 12 -648 9 -9 92 -12 312 -12
265 0 302 -2 318 -17 22 -19 23 -62 4 -89 -14 -18 -30 -19 -374 -19 -289 0
-362 3 -375 14 -16 12 -17 74 -17 709 0 633 1 697 17 714 20 22 61 23 85 1z"/>
<path d="M5715 7794 c-109 -22 -139 -31 -200 -60 -80 -38 -179 -118 -230 -187
-74 -98 -135 -271 -135 -382 0 -75 31 -191 77 -285 75 -153 199 -261 370 -321
83 -29 230 -36 313 -15 227 57 402 232 460 462 90 351 -136 719 -477 779 -76
14 -137 17 -178 9z"/>
<path d="M8095 7794 c-109 -22 -139 -31 -200 -60 -229 -108 -379 -359 -361
-604 16 -228 151 -433 347 -529 106 -51 182 -71 279 -71 265 0 498 180 582
450 34 110 32 273 -5 386 -60 183 -204 336 -369 394 -90 31 -209 46 -273 34z"/>
<path d="M10420 7785 c-237 -45 -444 -249 -495 -491 -65 -308 113 -621 416
-731 65 -24 88 -27 199 -27 111 0 132 3 192 27 101 39 156 75 228 147 119 118
182 278 182 455 0 117 -22 208 -74 308 -122 235 -386 362 -648 312z"/>
<path d="M4102 7443 l3 -318 200 0 c187 0 204 2 260 24 82 33 165 116 190 190
23 70 17 189 -13 246 -29 58 -99 118 -168 146 -54 21 -77 24 -267 27 l-207 3
2 -318z"/>
</g>
</svg>
